<?xml version="1.0" encoding="utf-8"?>
<!-- Generator: Adobe Illustrator 19.0.0, SVG Export Plug-In . SVG Version: 6.00 Build 0)  -->
<svg version="1.1" id="Layer_1" xmlns="http://www.w3.org/2000/svg" xmlns:xlink="http://www.w3.org/1999/xlink" x="0px" y="0px"
	 viewBox="-243 347.1 123.3 98.9" style="enable-background:new -243 347.1 123.3 98.9;" xml:space="preserve">
<style type="text/css">
	.st0{fill:#333333;}
</style>
<g>
	<path class="st0" d="M-206.9,446c-15,0-22.5-8.6-22.5-22.9v-37.9H-243v-14.8h13.6v-18.9l17.9-4.4v23.4h18.8v14.8h-18.8v36.3
		c0,5.7,2.6,8.2,8.3,8.2c3.7,0,6.7-0.1,11.6-0.7v15C-196.6,445.3-201.6,446-206.9,446z"/>
	<path class="st0" d="M-137.6,445v-45.7c0-8.8-2.9-14-12.3-14c-6.3,0-10.5,4-12.9,9.5c-2.6,5.9-2.4,13.6-2.4,19.9V445h-17.9v-74.6
		h15.1l1.3,9.6c4.4-7.9,13.3-11.5,21.9-11.5c15.9,0,25.2,11.2,25.2,26.7V445H-137.6L-137.6,445z"/>
</g>
</svg>
